<svg viewBox="0 0 200 200" xmlns="http://www.w3.org/2000/svg">
  <!-- Background circle -->
  <circle cx="100" cy="100" r="95" fill="#1e40af" opacity="0.1"></circle>
  
  <!-- Gradient definitions -->
  <defs>
    <linearGradient id="botGradient" x1="0%" y1="0%" x2="100%" y2="100%">
      <stop offset="0%" style="stop-color:#3b82f6;stop-opacity:1"></stop>
      <stop offset="100%" style="stop-color:#1e40af;stop-opacity:1"></stop>
    </linearGradient>
    <linearGradient id="capGradient" x1="0%" y1="0%" x2="100%" y2="100%">
      <stop offset="0%" style="stop-color:#8b5cf6;stop-opacity:1"></stop>
      <stop offset="100%" style="stop-color:#6366f1;stop-opacity:1"></stop>
    </linearGradient>
  </defs>
  
  <!-- Bot head/body -->
  <rect x="60" y="80" width="80" height="70" rx="8" fill="url(#botGradient)"></rect>
  
  <!-- Graduation cap on bot -->
  <g transform="translate(100, 65)">
    <!-- Cap top (board) -->
    
    <!-- Cap base -->
    <ellipse cx="0" cy="0" rx="30" ry="8" fill="url(#capGradient)"></ellipse>
    <!-- Tassel -->
    <line x1="30" y1="-8" x2="38" y2="-2" stroke="#fbbf24" stroke-width="2" stroke-linecap="round"></line>
    <circle cx="38" cy="-2" r="3" fill="#fbbf24"></circle>
  </g>
  
  <!-- Bot eyes (AI-themed) -->
  <circle cx="80" cy="105" r="8" fill="#ffffff"></circle>
  <circle cx="120" cy="105" r="8" fill="#ffffff"></circle>
  <circle cx="80" cy="105" r="4" fill="#1e40af"></circle>
  <circle cx="120" cy="105" r="4" fill="#1e40af"></circle>
  
  <!-- AI brain circuit pattern in head -->
  <g opacity="0.3">
    <circle cx="85" cy="95" r="2" fill="#ffffff"></circle>
    <circle cx="100" cy="92" r="2" fill="#ffffff"></circle>
    <circle cx="115" cy="95" r="2" fill="#ffffff"></circle>
    <line x1="85" y1="95" x2="100" y2="92" stroke="#ffffff" stroke-width="1"></line>
    <line x1="100" y1="92" x2="115" y2="95" stroke="#ffffff" stroke-width="1"></line>
  </g>
  
  <!-- Smile/mouth -->
  <path d="M 80 125 Q 100 135 120 125" stroke="#ffffff" stroke-width="3" fill="none" stroke-linecap="round" data-index="1" style="visibility: hidden;"></path>
  
  <!-- Course schedule/calendar icon on body -->
  <g transform="translate(100, 120)">
    <rect x="-15" y="-8" width="30" height="20" rx="2" fill="#ffffff" opacity="0.9"></rect>
    <!-- Calendar grid -->
    <line x1="-12" y1="-4" x2="12" y2="-4" stroke="#3b82f6" stroke-width="1"></line>
    <line x1="-12" y1="0" x2="12" y2="0" stroke="#3b82f6" stroke-width="1"></line>
    <line x1="-12" y1="4" x2="12" y2="4" stroke="#3b82f6" stroke-width="1"></line>
    <line x1="-6" y1="-8" x2="-6" y2="12" stroke="#3b82f6" stroke-width="1"></line>
    <line x1="0" y1="-8" x2="0" y2="12" stroke="#3b82f6" stroke-width="1"></line>
    <line x1="6" y1="-8" x2="6" y2="12" stroke="#3b82f6" stroke-width="1"></line>
  </g>
  
  <!-- Bot antenna -->
  <line x1="100" y1="65" x2="100" y2="50" stroke="#3b82f6" stroke-width="3" stroke-linecap="round"></line>
  <circle cx="100" cy="48" r="5" fill="#fbbf24"></circle>
  <circle cx="100" cy="48" r="3" fill="#f59e0b"></circle>
  
  <!-- AI sparkles -->
  <g opacity="0.8">
    
    <path d="M 155 70 L 157 75 L 162 77 L 157 79 L 155 84 L 153 79 L 148 77 L 153 75 Z" fill="#fbbf24" data-index="3" style="visibility: hidden;"></path>
    
    <path d="M 150 140 L 151 143 L 154 144 L 151 145 L 150 148 L 149 145 L 146 144 L 149 143 Z" fill="#8b5cf6" data-index="5" style="visibility: hidden;"></path>
  </g>
</svg>